<svg xmlns="http://www.w3.org/2000/svg" width="198" height="224.036" viewBox="0 0 198 224.036">
  <g id="Group_4" data-name="Group 4" transform="translate(-808 -143)">
    <path id="Subtraction_6" data-name="Subtraction 6" d="M-62-50H-89V-65h12V-233H-245V-65h118v15H-260V-248H-62V-50Z" transform="translate(1068 391)" fill="#fff"/>
    <path id="Path_5" data-name="Path 5" d="M-1.685,28.931H-.293a25.368,25.368,0,0,0,8.606-1.355,14.131,14.131,0,0,0,6.335-4.541,22.152,22.152,0,0,0,3.918-8.5,54.486,54.486,0,0,0,1.355-13.22V-90.6a12.122,12.122,0,0,0-.989-5.31,7.621,7.621,0,0,0-2.673-3.113,9.656,9.656,0,0,0-3.918-1.428,32.372,32.372,0,0,0-4.724-.33h-1.9v-6.3H49.365v6.3H47.388a29.878,29.878,0,0,0-4.761.366,9.463,9.463,0,0,0-3.918,1.5,7.875,7.875,0,0,0-2.637,3.259,13.506,13.506,0,0,0-.989,5.64V1.172q0,10.107-2.637,16.809A26.777,26.777,0,0,1,25.2,28.674a27.148,27.148,0,0,1-10.876,5.676A51.571,51.571,0,0,1,.879,36.035H-1.685Z" transform="translate(932.685 331)" fill="#fff"/>
    <circle id="Ellipse_5" data-name="Ellipse 5" cx="10" cy="10" r="10" transform="translate(950 193)" fill="#feb34d"/>
    <path id="Path_6" data-name="Path 6" d="M69.58,0V-6.3h1.978a29.68,29.68,0,0,0,4.8-.366,9.434,9.434,0,0,0,3.882-1.5,7.875,7.875,0,0,0,2.637-3.259,13.506,13.506,0,0,0,.989-5.64V-52.222H35.083v35.156a13.506,13.506,0,0,0,.989,5.64,7.875,7.875,0,0,0,2.637,3.259,9.463,9.463,0,0,0,3.918,1.5,29.878,29.878,0,0,0,4.761.366h1.978V0H5.713V-6.3h1.9a29.68,29.68,0,0,0,4.8-.366,9.732,9.732,0,0,0,3.918-1.5,7.516,7.516,0,0,0,2.637-3.259,13.966,13.966,0,0,0,.952-5.64V-90.6a12.122,12.122,0,0,0-.989-5.31,7.621,7.621,0,0,0-2.673-3.113,9.656,9.656,0,0,0-3.918-1.428,32.372,32.372,0,0,0-4.724-.33h-1.9v-6.3H49.365v6.3H47.388a29.878,29.878,0,0,0-4.761.366,9.463,9.463,0,0,0-3.918,1.5,7.875,7.875,0,0,0-2.637,3.259,13.506,13.506,0,0,0-.989,5.64v30.322H83.862V-90.015a13.506,13.506,0,0,0-.989-5.64,7.875,7.875,0,0,0-2.637-3.259,9.434,9.434,0,0,0-3.882-1.5,29.68,29.68,0,0,0-4.8-.366H69.58v-6.3h43.652v6.3h-1.9a29.68,29.68,0,0,0-4.8.366,9.732,9.732,0,0,0-3.918,1.5,7.516,7.516,0,0,0-2.637,3.259,13.966,13.966,0,0,0-.952,5.64v73.682a12.122,12.122,0,0,0,.989,5.31,7.109,7.109,0,0,0,2.673,3.04A10.36,10.36,0,0,0,106.6-6.628a32.372,32.372,0,0,0,4.724.33h1.9V0Z" transform="translate(831 295.08)" fill="#fff"/>
  </g>
</svg>
